HIERARCHY
ROOT Hips
{
    OFFSET 0.000000 0.000000 0.000000
    CHANNELS 6 Xposition Yposition Zposition Zrotation Xrotation Yrotation
    JOINT Spine
    {
        OFFSET -0.000000 0.081015 0.000000
        CHANNELS 3 Zrotation Xrotation Yrotation
        JOINT Spine1
        {
            OFFSET -0.000000 0.240812 0.000000
            CHANNELS 3 Zrotation Xrotation Yrotation
            JOINT Neck
            {
                OFFSET -0.000000 0.239823 0.021802
                CHANNELS 3 Zrotation Xrotation Yrotation
                JOINT Head
                {
                    OFFSET -0.000000 0.148909 -0.021273
                    CHANNELS 3 Zrotation Xrotation Yrotation
                    End Site
                    {
                        OFFSET -0.000000 0.197598 0.000000
                    }
                }
            }
            JOINT LeftShoulder
            {
                OFFSET 0.039829 0.224972 -0.001181
                CHANNELS 3 Zrotation Xrotation Yrotation
                JOINT LeftArm
                {
                    OFFSET 0.107364 0.000000 0.000000
                    CHANNELS 3 Zrotation Xrotation Yrotation
                    JOINT LeftForeArm
                    {
                        OFFSET 0.283104 0.000000 0.000000
                        CHANNELS 3 Zrotation Xrotation Yrotation
                        JOINT LeftHand
                        {
                            OFFSET 0.324767 0.000000 0.000000
                            CHANNELS 3 Zrotation Xrotation Yrotation
                            End Site
                            {
                                OFFSET 0.148198 0.000000 0.000000
                            }
                        }
                    }
                }
            }
            JOINT RightShoulder
            {
                OFFSET -0.039119 0.224972 -0.001181
                CHANNELS 3 Zrotation Xrotation Yrotation
                JOINT RightArm
                {
                    OFFSET -0.107364 0.000000 0.000000
                    CHANNELS 3 Zrotation Xrotation Yrotation
                    JOINT RightForeArm
                    {
                        OFFSET -0.283104 0.000000 0.000000
                        CHANNELS 3 Zrotation Xrotation Yrotation
                        JOINT RightHand
                        {
                            OFFSET -0.324767 0.000000 0.000000
                            CHANNELS 3 Zrotation Xrotation Yrotation
                            End Site
                            {
                                OFFSET -0.148198 0.000000 0.000000
                            }
                        }
                    }
                }
            }
        }
    }
    JOINT LeftUpLeg
    {
        OFFSET 0.098799 0.000000 0.000000
        CHANNELS 3 Zrotation Xrotation Yrotation
        JOINT LeftLeg
        {
            OFFSET -0.000000 -0.332632 0.000000
            CHANNELS 3 Zrotation Xrotation Yrotation
            JOINT LeftFoot
            {
                OFFSET -0.000000 -0.498967 0.000000
                CHANNELS 3 Zrotation Xrotation Yrotation
                JOINT LeftToeBase
                {
                    OFFSET -0.000000 -0.064219 0.148198
                    CHANNELS 3 Zrotation Xrotation Yrotation
                    End Site
                    {
                        OFFSET -0.000000 0.000000 0.039520
                    }
                }
            }
        }
    }
    JOINT RightUpLeg
    {
        OFFSET -0.098799 0.000000 0.000000
        CHANNELS 3 Zrotation Xrotation Yrotation
        JOINT RightLeg
        {
            OFFSET -0.000000 -0.332632 0.000000
            CHANNELS 3 Zrotation Xrotation Yrotation
            JOINT RightFoot
            {
                OFFSET -0.000000 -0.498967 0.000000
                CHANNELS 3 Zrotation Xrotation Yrotation
                JOINT RightToeBase
                {
                    OFFSET -0.000000 -0.064219 0.148198
                    CHANNELS 3 Zrotation Xrotation Yrotation
                    End Site
                    {
                        OFFSET -0.000000 0.000000 0.039520
                    }
                }
            }
        }
    }
}
MOTION
Frames:    6
Frame Time:    0.010000
0.142037    0.863417    -0.320121    7.333858    3.512594    113.572151    -4.197076    3.275375    -4.539493    7.240667    20.878380    -2.873100    -1.878821    36.127090    9.573018    -11.153463    -18.595146    6.246515    -17.054071    27.991943    -6.426311    -41.731995    10.926704    -26.606491    50.275749    -41.456467    -55.421810    42.102516    -17.069086    -1.380229    9.892521    25.213364    4.066814    23.928185    31.141870    28.295927    -32.913063    -30.308817    13.714327    -13.736341    -25.859156    -8.066071    4.003504    10.502216    -1.348285    -1.711388    22.133518    -8.605126    9.588441    -21.371294    15.275458    0.000000    0.000000    0.000000    -13.684343    -16.396181    -5.728197    5.785462    18.565046    -7.295308    6.877123    -8.116657    -10.017979    0.000000    0.000000    0.000000    
0.150576    0.861399    -0.320941    7.267746    3.901219    114.170479    -4.086412    2.970618    -4.764453    6.957948    21.329857    -2.919608    -2.038981    36.093876    9.833547    -11.110269    -18.308916    6.526892    -17.118097    28.548033    -6.061723    -42.096748    10.913940    -26.609705    49.806568    -41.268196    -55.996586    40.976406    -16.397655    -0.334484    10.051408    25.388653    3.426619    25.024870    31.670633    27.507952    -34.561855    -30.430473    14.098021    -14.654362    -25.544004    -8.738189    3.927578    10.969163    -1.539596    -1.535041    22.238277    -8.807233    9.341991    -21.642725    15.012513    0.000000    0.000000    0.000000    -13.644812    -16.464899    -6.245724    5.579009    19.460369    -6.367315    2.370005    -5.727921    -8.424849    0.000000    0.000000    0.000000    
0.159344    0.859311    -0.321655    7.225646    4.295803    114.782089    -4.110370    2.754405    -4.960900    7.030124    21.686996    -3.018506    -2.159693    36.217880    9.908772    -11.479119    -18.298216    6.469479    -17.494484    28.949800    -5.559383    -42.440506    11.115328    -26.447325    48.897324    -41.307087    -56.717777    39.668320    -16.851418    -1.033320    10.097960    25.644699    2.666530    26.215704    31.915779    26.715315    -36.123909    -30.169436    14.660228    -14.956719    -24.844374    -9.099351    4.027081    11.470059    -1.976129    -1.663716    22.357117    -9.349926    9.412597    -21.837748    15.352310    0.000000    0.000000    0.000000    -13.534578    -16.296219    -7.101285    4.766729    20.283255    -4.824230    1.106578    -5.565187    -7.842162    0.000000    0.000000    0.000000    
0.168282    0.857384    -0.322367    7.255593    4.680789    115.357819    -4.036476    2.697674    -5.133536    7.059566    21.836185    -3.090069    -2.362439    36.325249    10.008140    -11.800640    -18.048315    6.458663    -18.019276    29.409449    -4.858403    -42.666489    11.222381    -26.381407    47.916965    -41.153061    -57.508583    38.397926    -16.863304    -1.142212    10.256479    25.910864    1.885301    27.489998    31.967701    25.844978    -37.459908    -29.917187    15.459009    -15.881192    -24.010183    -9.687099    4.044500    11.996536    -2.181154    -1.502263    22.547579    -9.864180    9.262136    -22.000929    15.435810    0.000000    0.000000    0.000000    -13.302348    -15.996599    -8.166270    3.505378    20.719734    -2.974126    2.137750    -5.406034    -7.451011    0.000000    0.000000    0.000000    
0.177233    0.855416    -0.322756    7.292268    4.938424    115.947197    -3.817472    2.542556    -5.225722    7.001337    22.046928    -3.120247    -2.650586    36.168495    10.226439    -11.701211    -17.359537    6.730169    -18.390985    29.668907    -4.356786    -43.009037    11.049871    -26.226677    46.713169    -40.545082    -58.393745    37.337997    -16.389471    -1.186915    10.729862    25.999489    0.988490    28.600084    32.102699    24.964100    -38.732891    -29.616901    16.071638    -16.278698    -23.209452    -10.240406    4.198351    12.380432    -2.276759    -1.314784    22.946617    -10.559326    9.314139    -22.226006    15.748381    0.000000    0.000000    0.000000    -13.069280    -15.981780    -8.683867    2.537587    21.427317    -2.101614    1.608640    -3.048261    -7.898992    0.000000    0.000000    0.000000    
0.186174    0.853769    -0.322957    7.426510    5.088774    116.591873    -3.373627    2.630939    -5.496029    6.841131    22.009327    -3.175532    -2.541520    36.371815    10.184713    -12.609471    -17.303423    6.445320    -18.968241    29.859547    -3.370111    -43.230473    11.003076    -26.182545    45.511841    -39.841843    -59.156452    37.053211    -15.861715    -1.128156    11.107453    26.176130    0.314478    29.975842    31.719940    23.959873    -39.572540    -29.464720    17.233477    -16.934961    -22.369303    -11.001693    4.400212    12.675881    -2.266002    -0.850421    23.457647    -11.235911    9.145864    -22.395714    15.784900    0.000000    0.000000    0.000000    -12.797876    -16.183933    -8.868411    1.895125    22.445469    -1.137306    2.159675    -1.072043    -9.294971    0.000000    0.000000    0.000000    
